<svg width="113" height="113" viewBox="0 0 113 113" fill="none" xmlns="http://www.w3.org/2000/svg">
<g clip-path="url(#clip0_2021_2)">
<rect width="113" height="113" fill="black"/>
<path d="M113 113H0V0H113V113ZM46.2988 22C42.4752 22 38.83 22.7433 35.3633 24.2305C31.9475 25.7176 29.1434 27.8461 26.9512 30.6152C24.759 33.3844 23.6631 36.7179 23.6631 40.6152C23.6631 43.5896 24.4276 46.1796 25.957 48.3848C27.5375 50.5386 29.5258 52.4362 31.9219 54.0771C34.369 55.7181 36.8931 57.2306 39.4932 58.6152C42.3481 60.1024 45.0758 61.59 47.6758 63.0771C50.3267 64.5643 52.4935 66.2311 54.1758 68.0771C55.858 69.8719 56.6991 72.0255 56.6992 74.5381C56.6992 77.615 55.7051 80.0259 53.7168 81.7695C51.7285 83.4618 49.1026 84.3076 45.8398 84.3076C41.2517 84.3076 37.3262 82.8974 34.0635 80.0771C30.8516 77.2054 28.9651 73.5894 28.4043 69.2305L24.2744 68.4619C23.7647 70.2055 23.408 72.5132 23.2041 75.3848C23.0002 78.2052 22.9488 80.7695 23.0508 83.0771C23.1527 85.3841 23.4078 86.666 23.8154 86.9229C26.9763 88.6664 30.2649 89.949 33.6807 90.7695C37.1475 91.59 40.156 92 42.7051 92C44.3364 92 46.5538 91.7691 49.3574 91.3076C52.2123 90.8461 55.0932 89.8977 57.999 88.4619C60.905 87.026 63.3525 84.8201 65.3408 81.8457C67.3799 78.8714 68.3994 74.897 68.3994 69.9229C68.3994 66.3846 67.533 63.436 65.7998 61.0771C64.0664 58.7182 61.8737 56.6923 59.2227 55C56.5716 53.3077 53.8692 51.7694 51.1162 50.3848C46.7829 48.1284 43.061 46.0517 39.9512 44.1543C36.8923 42.2056 35.3633 39.6921 35.3633 36.6152C35.3633 34.7179 36.2044 32.9486 37.8867 31.3076C39.569 29.6154 41.9141 28.7696 44.9219 28.7695C47.471 28.7695 49.9185 29.6412 52.2637 31.3848C54.6598 33.0771 56.7498 35.7696 58.5342 39.4619L62.0527 40C62.6135 39.2821 63.2503 38 63.9639 36.1543C64.7286 34.2569 65.3148 32.4359 65.7227 30.6924C66.1814 28.898 66.2073 27.8212 65.7998 27.4619C63.8625 25.8209 60.9565 24.5124 57.082 23.5381C53.2584 22.5124 49.6637 22 46.2988 22ZM83.4287 70.6924C81.5425 70.6925 79.8088 71.5642 78.2285 73.3076C76.6483 74.9998 75.8585 77.5127 75.8584 80.8457C75.8584 83.9739 76.5977 86.5132 78.0762 88.4619C79.5545 90.359 81.3387 91.3075 83.4287 91.3076C85.5189 91.3076 87.3038 90.3592 88.7822 88.4619C90.2607 86.5132 91 83.9739 91 80.8457C90.9999 77.6152 90.2093 75.1283 88.6289 73.3848C87.0995 71.59 85.366 70.6924 83.4287 70.6924Z" fill="white"/>
</g>
<defs>
<clipPath id="clip0_2021_2">
<rect width="113" height="113" fill="white"/>
</clipPath>
</defs>
</svg>
